HIERARCHY
ROOT Bip001_Pelvis
{
  OFFSET -1.80259 95.4564 -9.99843
  CHANNELS 6 Xposition Yposition Zposition Zrotation Xrotation Yrotation
  JOINT Bip001_Spine
  {
    OFFSET 1.44608e-005 10.4157 -0.0118244
    CHANNELS 3 Zrotation Xrotation Yrotation
    JOINT Bip001_L_Thigh
    {
      OFFSET 11.2582 -10.4157 0.0118432
      CHANNELS 3 Zrotation Xrotation Yrotation
      JOINT Bip001_L_Calf
      {
        OFFSET -0.720717 -44.8687 0.366937
        CHANNELS 3 Zrotation Xrotation Yrotation
        JOINT Bip001_L_Foot
        {
          OFFSET -0.664439 -41.3745 -3.62995
          CHANNELS 3 Zrotation Xrotation Yrotation
          JOINT Bip001_L_Toe0
          {
            OFFSET 0.0541047 -10.4146 13.4033
            CHANNELS 3 Zrotation Xrotation Yrotation
            End Site
            {
              OFFSET -1.04503e-005 0 7.70137
            }
          }
        }
      }
    }
    JOINT Bip001_R_Thigh
    {
      OFFSET -11.2582 -10.4156 0.0118122
      CHANNELS 3 Zrotation Xrotation Yrotation
      JOINT Bip001_R_Calf
      {
        OFFSET 0.72059 -44.8687 0.36676
        CHANNELS 3 Zrotation Xrotation Yrotation
        JOINT Bip001_R_Foot
        {
          OFFSET 0.664321 -41.3745 -3.62979
          CHANNELS 3 Zrotation Xrotation Yrotation
          JOINT Bip001_R_Toe0
          {
            OFFSET -0.05417 -10.4146 13.4033
            CHANNELS 3 Zrotation Xrotation Yrotation
            End Site
            {
              OFFSET -1.04873e-005 0 7.70137
            }
          }
        }
      }
    }
    JOINT Bip001_Spine1
    {
      OFFSET 1.90638e-005 14.8539 1.10727
      CHANNELS 3 Zrotation Xrotation Yrotation
      JOINT Bip001_Spine2
      {
        OFFSET 2.28934e-005 14.7848 -1.7233
        CHANNELS 3 Zrotation Xrotation Yrotation
        JOINT Bip001_Neck
        {
          OFFSET 2.24514e-005 15.6905 -0.498826
          CHANNELS 3 Zrotation Xrotation Yrotation
          JOINT Bip001_L_Clavicle
          {
            OFFSET 6.17691 -0.000591152 0.00852867
            CHANNELS 3 Zrotation Xrotation Yrotation
            JOINT Bip001_L_UpperArm
            {
              OFFSET 11.773 -0.0611878 0.00197697
              CHANNELS 3 Zrotation Xrotation Yrotation
              JOINT Bip001_L_Forearm
              {
                OFFSET 26.4514 0.0817568 -2.19579
                CHANNELS 3 Zrotation Xrotation Yrotation
                JOINT Bip001_L_Hand
                {
                  OFFSET 32.8677 0.156744 1.67112
                  CHANNELS 3 Zrotation Xrotation Yrotation
                  JOINT Bip001_L_Finger0
                  {
                    OFFSET 6.16267 -2.25226 6.01674
                    CHANNELS 3 Zrotation Xrotation Yrotation
                    End Site
                    {
                      OFFSET 4.30498 -1.46663 0.618148
                    }
                  }
                  JOINT Bip001_L_Finger1
                  {
                    OFFSET 11.2957 -0.718374 -0.201963
                    CHANNELS 3 Zrotation Xrotation Yrotation
                    End Site
                    {
                      OFFSET 6.31952 -0.405163 -0.0802303
                    }
                  }
                }
              }
            }
          }
          JOINT Bip001_R_Clavicle
          {
            OFFSET -6.17691 -0.000574027 0.00851165
            CHANNELS 3 Zrotation Xrotation Yrotation
            JOINT Bip001_R_UpperArm
            {
              OFFSET -11.773 -0.0611516 0.00194365
              CHANNELS 3 Zrotation Xrotation Yrotation
              JOINT Bip001_R_Forearm
              {
                OFFSET -26.4514 0.0822336 -2.19736
                CHANNELS 3 Zrotation Xrotation Yrotation
                JOINT Bip001_R_Hand
                {
                  OFFSET -32.8677 0.156816 1.67144
                  CHANNELS 3 Zrotation Xrotation Yrotation
                  JOINT Bip001_R_Finger0
                  {
                    OFFSET -6.16269 -2.25224 6.01673
                    CHANNELS 3 Zrotation Xrotation Yrotation
                    End Site
                    {
                      OFFSET -4.30499 -1.46661 0.618137
                    }
                  }
                  JOINT Bip001_R_Finger1
                  {
                    OFFSET -11.2957 -0.718343 -0.201995
                    CHANNELS 3 Zrotation Xrotation Yrotation
                    End Site
                    {
                      OFFSET -6.31952 -0.405145 -0.0802479
                    }
                  }
                }
              }
            }
          }
          JOINT Bip001_Head
          {
            OFFSET 1.11782e-005 11.4912 2.09908
            CHANNELS 3 Zrotation Xrotation Yrotation
            End Site
            {
              OFFSET 2.95144e-005 21.2823 -2.83069e-005
            }
          }
        }
      }
    }
  }
}
MOTION
Frames:	14
Frame Time:	0.0333333
-1.8282 95.46 -9.93549 -0.107357 -6.69086 2.04131 -0.481771 3.05886 0.403931 0.30613 -3.07694 -8.27651 -0.00772674 11.6638 -0.179871 0.765726 -5.09158 5.12813 -1.14692e-010 1.33391e-008 -1.325e-010 0.390043 -4.68929 3.78883 0.00924699 10.5087 0.163397 -1.49559 -2.40445 -7.60936 2.13647e-007 -2.45656e-008 -1.0497e-009 -0.105856 6.11035 0.720812 -0.0999583 6.11014 0.71645 2.97183 6.56171 -2.20641 -31.4752 -2.99259 -8.78623 -40.5495 53.3224 -11.1514 -2.13567 0.485375 -22.0608 6.15429 8.73714 1.61031 -1.59028e-015 0 -7.95139e-016 -1.32417e-031 -3.18056e-015 -2.38542e-015 22.5214 -5.27809 0.859746 45.6903 50.8907 13.2669 1.56508 0.280782 16.0362 -4.79448 -8.82638 -5.55528 2.38542e-015 3.18055e-015 7.95139e-016 1.59028e-015 0 7.95139e-016 -0.97436 -12.7462 -0.9945 
-1.82821 95.46 -9.93558 -0.107291 -6.69066 2.04156 -0.481771 3.05886 0.403931 0.305386 -3.07697 -8.2788 -0.00772968 11.6628 -0.17987 0.765575 -5.09103 5.12909 -1.14692e-010 1.33391e-008 -1.325e-010 0.389776 -4.68868 3.78826 0.00924732 10.5086 0.163397 -1.49555 -2.40399 -7.60983 2.13647e-007 -2.45656e-008 -1.0497e-009 -0.105836 6.10984 0.72069 -0.0999361 6.10964 0.716301 2.97238 6.56171 -2.20675 -31.4746 -2.99311 -8.78619 -40.5494 53.3245 -11.1513 -2.13582 0.485792 -22.0608 6.15691 8.7362 1.61055 -1.59028e-015 0 3.18055e-015 -1.59028e-015 -3.18056e-015 2.38542e-015 22.5213 -5.27815 0.859518 45.6899 50.8941 13.266 1.56522 0.280956 16.0368 -4.79566 -8.83201 -5.556 -7.95139e-016 -3.18055e-015 -0 0 0 -7.95139e-016 -0.97436 -12.7462 -0.9945 
-1.82823 95.46 -9.93643 -0.107213 -6.6905 2.04176 -0.481771 3.05886 0.403931 0.304756 -3.07712 -8.27908 -0.00773169 11.6622 -0.17987 0.765397 -5.09055 5.12824 -1.14692e-010 1.33391e-008 -1.325e-010 0.389523 -4.68818 3.78807 0.00924748 10.5085 0.163397 -1.49486 -2.39879 -7.60996 2.13647e-007 -2.45656e-008 -1.0497e-009 -0.105816 6.10955 0.720538 -0.0999139 6.10937 0.716123 2.97271 6.56173 -2.20696 -31.4776 -2.99339 -8.78679 -40.5431 53.3409 -11.1561 -2.13595 0.486105 -22.057 6.16416 8.71944 1.6087 1.59028e-015 9.54166e-015 7.95139e-016 0 1.27222e-014 -0 22.5227 -5.27828 0.85932 45.6822 50.9108 13.2733 1.56531 0.281052 16.0344 -4.7962 -8.8619 -5.55635 0 0 -0 7.95139e-016 0 -0 -0.97436 -12.7462 -0.9945 
-1.82825 95.46 -9.93783 -0.107123 -6.69036 2.04191 -0.481771 3.05886 0.403931 0.304169 -3.07786 -8.27764 -0.0077326 11.6619 -0.17987 0.765024 -5.0901 5.12402 -1.14692e-010 1.33391e-008 -1.325e-010 0.389349 -4.6878 3.78903 0.00924748 10.5085 0.163397 -1.49315 -2.38603 -7.60977 2.13647e-007 -2.45656e-008 -1.0497e-009 -0.105797 6.10949 0.720359 -0.0998919 6.10934 0.71592 2.97281 6.56177 -2.20702 -31.4837 -2.99342 -8.78773 -40.5298 53.37 -11.1653 -2.13612 0.486317 -22.0452 6.17581 8.68867 1.60296 4.41391e-032 3.18055e-015 -7.95139e-016 -1.59028e-015 0 -0 22.5254 -5.2785 0.859152 45.6642 50.9355 13.2941 1.56542 0.280936 16.0259 -4.7931 -8.90889 -5.55515 -8.82781e-032 -3.18055e-015 -1.59028e-015 -0 -9.54167e-015 -0 -0.97436 -12.7462 -0.9945 
-1.82828 95.46 -9.93958 -0.107023 -6.69024 2.042 -0.481771 3.05886 0.403931 0.303806 -3.07875 -8.27266 -0.00773225 11.662 -0.17987 0.764554 -5.0896 5.11779 -1.14692e-010 1.33391e-008 -1.325e-010 0.389298 -4.68756 3.7916 0.00924732 10.5086 0.163397 -1.49109 -2.37073 -7.60928 2.13647e-007 -2.45656e-008 -1.0497e-009 -0.105777 6.10968 0.720154 -0.0998704 6.10956 0.715692 2.97266 6.56183 -2.20695 -31.4907 -2.99317 -8.79108 -40.5123 53.4076 -11.1775 -2.1363 0.486409 -22.0282 6.1894 8.64955 1.59368 -4.41391e-032 3.18055e-015 7.95139e-016 -1.59028e-015 3.18056e-015 3.18055e-015 22.5315 -5.27878 0.859015 45.6417 50.9627 13.3204 1.56568 0.280104 16.0131 -4.78509 -8.96552 -5.55226 2.38542e-015 -9.54166e-015 -7.95139e-016 2.38542e-015 -9.54167e-015 -0 -0.97436 -12.7462 -0.9945 
-1.82831 95.4599 -9.94149 -0.106916 -6.69014 2.04203 -0.481771 3.05886 0.403931 0.303733 -3.07976 -8.26329 -0.00773049 11.6626 -0.17987 0.763593 -5.08905 5.1054 -1.14692e-010 1.33391e-008 -1.325e-010 0.389262 -4.68749 3.79442 0.00924699 10.5087 0.163397 -1.48886 -2.35475 -7.60712 2.13647e-007 -2.45656e-008 -1.0497e-009 -0.105758 6.11012 0.719924 -0.0998499 6.11005 0.715442 2.97226 6.5619 -2.20673 -31.4989 -2.99266 -8.7948 -40.4891 53.4517 -11.1945 -2.13647 0.486359 -22.0094 6.20299 8.60644 1.5834 -1.59028e-015 3.18055e-015 -7.95139e-016 -3.18055e-015 0 7.95139e-016 22.5399 -5.27915 0.85891 45.6176 50.988 13.349 1.56591 0.279219 15.9977 -4.77479 -9.0246 -5.548 7.95139e-016 -6.36111e-015 -1.59028e-015 -7.95139e-016 -6.36111e-015 -7.95139e-016 -0.97436 -12.7462 -0.9945 
-1.82831 95.4599 -9.94333 -0.106804 -6.69007 2.042 -0.481771 3.05886 0.403931 0.303915 -3.08086 -8.25057 -0.00772568 11.6641 -0.179871 0.762681 -5.09123 5.09036 -1.14692e-010 1.33391e-008 -1.325e-010 0.389195 -4.68759 3.79689 0.00924652 10.5089 0.163397 -1.48681 -2.34011 -7.6048 2.13647e-007 -2.45656e-008 -1.0497e-009 -0.10574 6.11083 0.719672 -0.0998305 6.11082 0.715171 2.97158 6.56198 -2.20637 -31.5081 -2.99187 -8.79967 -40.4601 53.4946 -11.2163 -2.13689 0.485507 -21.9908 6.21061 8.56364 1.57323 3.18055e-015 3.18055e-015 -0 3.18055e-015 3.18056e-015 7.95139e-016 22.5465 -5.2796 0.858837 45.5945 51.0069 13.3771 1.56612 0.278277 15.9811 -4.76218 -9.07882 -5.54012 -1.59028e-015 0 -7.95139e-016 -7.95139e-016 0 -7.95139e-016 -0.97436 -12.7462 -0.9945 
-1.82827 95.4599 -9.94495 -0.106688 -6.69001 2.0419 -0.481771 3.05886 0.403931 0.30441 -3.08202 -8.23379 -0.00771594 11.6671 -0.179873 0.76311 -5.09462 5.07246 -1.14692e-010 1.33391e-008 -1.325e-010 0.389065 -4.6879 3.79855 0.00924588 10.5091 0.163397 -1.48503 -2.32749 -7.60231 2.13647e-007 -2.45656e-008 -1.0497e-009 -0.105724 6.11183 0.719398 -0.0998127 6.11187 0.714881 2.97062 6.56206 -2.20587 -31.5147 -2.99077 -8.80641 -40.4324 53.5332 -11.2373 -2.13736 0.484292 -21.9737 6.21399 8.52457 1.56407 1.59028e-015 0 7.95139e-016 1.59028e-015 3.18056e-015 -0 22.5543 -5.28013 0.858797 45.5751 51.0139 13.4023 1.5663 0.277277 15.964 -4.748 -9.12209 -5.53009 7.95139e-016 -3.18055e-015 -0 7.95139e-016 -6.36111e-015 -7.95139e-016 -0.97436 -12.7462 -0.9945 
-1.82812 95.4599 -9.94655 -0.10657 -6.68996 2.04175 -0.481771 3.05886 0.403931 0.305387 -3.08322 -8.21017 -0.00770616 11.6702 -0.179875 0.763662 -5.09851 5.04855 -1.14692e-010 1.33391e-008 -1.325e-010 0.38893 -4.68842 3.80007 0.00924509 10.5094 0.163397 -1.48339 -2.31603 -7.5996 2.13647e-007 -2.45656e-008 -1.0497e-009 -0.105724 6.11436 0.719105 -0.0998172 6.11485 0.714575 2.96855 6.56215 -2.20522 -31.5216 -2.98937 -8.81402 -40.4033 53.5729 -11.2598 -2.13726 0.483014 -21.9558 6.21594 8.48377 1.55472 1.59028e-015 3.18055e-015 7.95139e-016 4.77083e-015 6.36111e-015 -7.95139e-016 22.5618 -5.28074 0.858789 45.5562 51.0137 13.4285 1.56647 0.276219 15.945 -4.73163 -9.16254 -5.51665 7.95139e-016 9.54166e-015 2.38542e-015 -6.62086e-031 1.59028e-014 2.38542e-015 -0.97436 -12.7462 -0.9945 
-1.82792 95.4598 -9.94823 -0.106452 -6.68993 2.04152 -0.481771 3.05886 0.403931 0.306844 -3.08445 -8.18034 -0.00769588 11.6734 -0.179877 0.764056 -5.10353 5.01924 -1.14692e-010 1.33391e-008 -1.325e-010 0.388804 -4.68918 3.80157 0.00924414 10.5097 0.163398 -1.48165 -2.30428 -7.59552 2.13647e-007 -2.45656e-008 -1.04969e-009 -0.105729 6.11743 0.718794 -0.0998209 6.11792 0.714253 2.96542 6.56224 -2.20442 -31.5291 -2.98767 -8.82119 -40.371 53.6155 -11.2849 -2.13604 0.481681 -21.9364 6.21623 8.43951 1.54471 1.59028e-015 0 7.95139e-016 1.59028e-015 3.18056e-015 -7.95139e-016 22.5698 -5.28191 0.858816 45.5359 51.0098 13.4575 1.56557 0.275104 15.9238 -4.71296 -9.20354 -5.5001 -7.95139e-016 -3.18055e-015 -0 -0 -3.18056e-015 -0 -0.97436 -12.7462 -0.9945 
-1.82768 95.4597 -9.94996 -0.106337 -6.68991 2.04123 -0.481771 3.05886 0.403931 0.308637 -3.08563 -8.14747 -0.00768335 11.6773 -0.17988 0.764241 -5.10919 4.98728 -1.14692e-010 1.33391e-008 -1.325e-010 0.388712 -4.69058 3.80301 0.00924303 10.5101 0.163398 -1.47993 -2.29284 -7.59062 2.13647e-007 -2.45656e-008 -1.0497e-009 -0.105733 6.12055 0.718466 -0.0998236 6.12104 0.713917 2.9622 6.56232 -2.20314 -31.5367 -2.98505 -8.82876 -40.3368 53.6599 -11.3116 -2.13453 0.480296 -21.916 6.216 8.39326 1.53424 0 3.18055e-015 -0 1.59028e-015 3.18056e-015 -0 22.5784 -5.28298 0.858876 45.515 51.0037 13.488 1.56443 0.273929 15.9007 -4.69199 -9.24355 -5.4817 7.95139e-016 6.36111e-015 2.38542e-015 -1.76556e-031 6.36111e-015 1.59028e-015 -0.97436 -12.7462 -0.9945 
-1.82742 95.4596 -9.95173 -0.106225 -6.68989 2.04087 -0.481771 3.05886 0.403931 0.310611 -3.08673 -8.11419 -0.00767298 11.6805 -0.179882 0.762221 -5.11209 4.95521 -1.14693e-010 1.33391e-008 -1.325e-010 0.388688 -4.69309 3.80434 0.00924178 10.5105 0.163398 -1.47825 -2.28183 -7.58532 2.13647e-007 -2.45656e-008 -1.04969e-009 -0.105736 6.1237 0.718122 -0.0998253 6.12419 0.713567 2.95885 6.56241 -2.19968 -31.5446 -2.98052 -8.8373 -40.3015 53.7048 -11.339 -2.13293 0.478863 -21.8954 6.21526 8.34648 1.52352 4.41391e-032 3.18055e-015 -7.95139e-016 1.32417e-031 3.18056e-015 -2.38542e-015 22.5865 -5.28393 0.858971 45.4964 50.9936 13.518 1.56313 0.272693 15.8761 -4.66898 -9.28123 -5.46269 7.95139e-016 3.18055e-015 -7.95139e-016 0 6.36111e-015 -0 -0.97436 -12.7462 -0.9945 
-1.82715 95.4595 -9.95353 -0.106119 -6.6899 2.04043 -0.481771 3.05886 0.403931 0.31259 -3.08768 -8.08349 -0.00766706 11.6824 -0.179883 0.759748 -5.11419 4.92565 -1.14692e-010 1.33391e-008 -1.325e-010 0.38867 -4.69586 3.80551 0.00924037 10.511 0.163398 -1.47673 -2.27207 -7.57983 2.13647e-007 -2.45656e-008 -1.0497e-009 -0.105736 6.12678 0.717763 -0.0998252 6.12729 0.713206 2.95573 6.56249 -2.19583 -31.5525 -2.97519 -8.84588 -40.266 53.7489 -11.3665 -2.13142 0.47742 -21.8752 6.21348 8.30073 1.51276 0 0 -0 1.59028e-015 3.18056e-015 -1.59028e-015 22.5943 -5.28478 0.859101 45.4818 50.9811 13.5466 1.56172 0.271083 15.8503 -4.64386 -9.31528 -5.44412 -7.95139e-016 -9.54166e-015 -1.59028e-015 -1.59028e-015 -6.36111e-015 -1.59028e-015 -0.97436 -12.7462 -0.9945 
-1.82689 95.4594 -9.95533 -0.10602 -6.68995 2.03992 -0.481771 3.05886 0.403931 0.314436 -3.08827 -8.05807 -0.00766208 11.6839 -0.179884 0.757679 -5.11558 4.90129 -1.14692e-010 1.33391e-008 -1.325e-010 0.3886 -4.69798 3.80648 0.0092388 10.5115 0.163399 -1.47552 -2.2645 -7.57494 2.13647e-007 -2.45656e-008 -1.0497e-009 -0.105734 6.12986 0.717391 -0.0998239 6.13038 0.712835 2.95275 6.56263 -2.19237 -31.5602 -2.97054 -8.85397 -40.2311 53.7912 -11.3932 -2.13204 0.476317 -21.8561 6.21135 8.25733 1.50212 4.77083e-015 3.18055e-015 -2.38542e-015 4.77083e-015 0 -3.18055e-015 22.6015 -5.28555 0.859266 45.4703 50.9673 13.5732 1.56016 0.269154 15.8237 -4.61688 -9.34437 -5.42733 -0 -6.36111e-015 -0 -7.95139e-016 -6.36111e-015 7.95139e-016 -0.97436 -12.7462 -0.9945 
